# xmcd
#
# Track frame offsets:
#	150
#	18805
#	38832
#	55125
#	68657
#	79897
#	99505
#	120050
#	134532
#	149812
#
# Disc length: 2214 seconds
#
# Revision: 1
# Processed by: cddbd v1.4PL0 Copyright (c) Steve Scherf et al.
# Submitted via: Gronk 1.4
#
DISCID=8108a40a
DTITLE=The Judds - River of Time
DYEAR=1900
DGENRE=country
TTITLE0=One Man Woman
TTITLE1=Young Love
TTITLE2=Not My Baby
TTITLE3=Let Me Tell You About Love
TTITLE4=Sleepless Nights
TTITLE5=Water Of Love
TTITLE6=River Of Time
TTITLE7=Cadillac Red
TTITLE8=Do I Dare
TTITLE9=Guardian Angel
EXTD=
EXTT0=
EXTT1=
EXTT2=
EXTT3=
EXTT4=
EXTT5=
EXTT6=
EXTT7=
EXTT8=
EXTT9=
PLAYORDER=
